# xmcd CD database file
#
# Track frame offsets:
#	150
#	12442
#	28070
#	39020
#	55455
#	67120
#	82285
#	99442
#	117717
#	128292
#	141080
#	158070
#
# Disc length: 2248 seconds
#
# Revision: 0
# Processed by: cddbd v1.5.2PL0 Copyright (c) Steve Scherf et al.
# Submitted via: CDex 1.83
#
DISCID=a108c60c
DTITLE=Al Viola - Solo Guitar 
DYEAR=1957
DGENRE=Jazz
TTITLE0=Alone Together
TTITLE1=Warm Valley
TTITLE2=I Get A Kick Out Of You
TTITLE3=Don't Blame Me
TTITLE4=Cheek To Cheek
TTITLE5=My Romance
TTITLE6=I'll Remember April
TTITLE7=How Long Has This Been Going On
TTITLE8=Nocturne
TTITLE9=Yesterdays
TTITLE10=Imagination
TTITLE11=My Old Flame 	
EXTD=YEAR: 1957
EXTT0=
EXTT1=
EXTT2=
EXTT3=
EXTT4=
EXTT5=
EXTT6=
EXTT7=
EXTT8=
EXTT9=
EXTT10=
EXTT11=
PLAYORDER=
